<svg width="50" height="50" viewBox="0 0 50 50" fill="none" xmlns="http://www.w3.org/2000/svg">
<path d="M44.9218 11.4632H30.2393V18.8505H22.6362V27.9085H44.9218L39.9505 19.6858L44.9218 11.4632Z" fill="#FF6326"/>
<path d="M12.1038 5.33455H33.1687V21.7799H12.1038V5.33455Z" fill="#EF2E2E"/>
<path d="M15.168 0H9.0395V2.92936H10.6391V43.215H13.5685V2.92936H15.168V0Z" fill="#828282"/>
<path d="M12.3444 41.7503H11.8629C8.12183 41.7503 5.07813 44.794 5.07813 48.5352V49.9999H19.1293V48.5352C19.1294 44.794 16.0857 41.7503 12.3444 41.7503Z" fill="#4C4C4C"/>
<path d="M33.1687 21.7799H22.6362V27.9085L33.1687 21.7799Z" fill="#FF3838"/>
<path d="M44.9218 11.4632H30.2393V18.8505H22.6362V27.9085H44.9218L39.9505 19.6858L44.9218 11.4632Z" fill="#E82828"/>
<path d="M33.1687 21.7799H22.6362V27.9085L33.1687 21.7799Z" fill="#A80A0A"/>
<path d="M22.6362 5.33455H33.1687V21.7799H22.6362V5.33455Z" fill="#EF2E2E"/>
<path d="M28.0939 14.2989H23.974V18.5547H21.8283V8.14056H28.6089V9.87864H23.974V12.568H28.0939V14.2989Z" fill="black"/>
</svg>
