<svg width="50" height="50" viewBox="0 0 50 50" fill="none" xmlns="http://www.w3.org/2000/svg">
<path d="M43.4569 11.4632H28.7745V18.8505H21.1714V27.9085H43.4569L38.4857 19.6858L43.4569 11.4632Z" fill="#FF6326"/>
<path d="M10.639 5.33455H31.7039V21.7799H10.639V5.33455Z" fill="#6EBB3F"/>
<path d="M13.7032 0H7.57465V2.92936H9.17427V43.215H12.1036V2.92936H13.7032V0Z" fill="#828282"/>
<path d="M10.8795 41.7504H10.3981C6.65698 41.7504 3.61328 44.794 3.61328 48.5352V49.9999H17.6644V48.5352C17.6645 44.794 14.6208 41.7504 10.8795 41.7504Z" fill="#4D4D4D"/>
<path d="M31.7039 21.7799H21.1714V27.9085L31.7039 21.7799Z" fill="#FF3838"/>
<path d="M43.4569 11.4632H28.7745V18.8505H21.1714V27.9085H43.4569L38.4857 19.6858L43.4569 11.4632Z" fill="#5CAB2B"/>
<path d="M31.7039 21.7799H21.1714V27.9085L31.7039 21.7799Z" fill="#306510"/>
<path d="M21.1714 5.33455H31.7039V21.7799H21.1714V5.33455Z" fill="#6EBB3F"/>
<path d="M23.0292 15.8224C23.0292 15.4171 22.8862 15.1072 22.6001 14.8926C22.314 14.6732 21.799 14.4444 21.0551 14.2059C20.3113 13.9627 19.7224 13.7243 19.2884 13.4907C18.1059 12.8517 17.5146 11.991 17.5146 10.9086C17.5146 10.3459 17.672 9.84526 17.9867 9.40657C18.3062 8.96311 18.7615 8.6174 19.3528 8.36945C19.9489 8.12149 20.6164 7.99751 21.3555 7.99751C22.0994 7.99751 22.7622 8.13341 23.3439 8.40521C23.9257 8.67224 24.3763 9.05132 24.6958 9.54247C25.02 10.0336 25.1822 10.5915 25.1822 11.2162H23.0364C23.0364 10.7393 22.8862 10.3698 22.5858 10.1075C22.2854 9.84049 21.8634 9.70697 21.3198 9.70697C20.7953 9.70697 20.3876 9.81903 20.0967 10.0431C19.8058 10.2625 19.6604 10.5534 19.6604 10.9158C19.6604 11.2543 19.8297 11.538 20.1682 11.7669C20.5115 11.9958 21.0146 12.2104 21.6774 12.4106C22.8981 12.7778 23.7874 13.2332 24.3453 13.7768C24.9032 14.3204 25.1822 14.9975 25.1822 15.8081C25.1822 16.7093 24.8412 17.4174 24.1593 17.9324C23.4775 18.4426 22.5596 18.6977 21.4056 18.6977C20.6045 18.6977 19.875 18.5523 19.2169 18.2614C18.5589 17.9658 18.0558 17.5629 17.7077 17.0527C17.3644 16.5424 17.1927 15.9512 17.1927 15.2788H19.3457C19.3457 16.428 20.0323 17.0026 21.4056 17.0026C21.9158 17.0026 22.314 16.9001 22.6001 16.695C22.8862 16.4852 23.0292 16.1943 23.0292 15.8224Z" fill="black"/>
</svg>
